<svg xmlns="http://www.w3.org/2000/svg" xmlns:xlink="http://www.w3.org/1999/xlink" xmlns:lucid="lucid" width="1680" height="1060"><g transform="translate(-80 0)" lucid:page-tab-id="0_0"><path d="M1260 180h460v360h-460z" fill-opacity="0"/><path d="M1274.74 180h5.9m11.8 0h5.9m11.8 0h5.9m11.78 0h5.9m11.8 0h5.9m11.8 0h5.88m11.8 0h5.9m11.8 0h5.9m11.78 0h5.9m11.8 0h5.9m11.8 0h5.88m11.8 0h5.9m11.8 0h5.9m11.78 0h5.9m11.8 0h5.9m11.8 0h5.9m11.78 0h5.9m11.8 0h5.9m11.8 0h5.88m11.8 0h5.9m11.8 0h5.9m11.78 0h5.9m11.8 0h5.9m11.8 0h5.88m11.8 0h5.9m11.8 0h2.94v3m0 12v6m0 12v6m0 12v6m0 12v6m0 12v6m0 12v6m0 12v6m0 12v6m0 12v6m0 12v6m0 12v6m0 12v6m0 12v6m0 12v6m0 12v6m0 12v6m0 12v6m0 12v6m0 12v6m0 12v3h-2.95m-11.8 0h-5.9m-11.8 0h-5.88m-11.8 0h-5.9m-11.8 0h-5.9m-11.78 0h-5.9m-11.8 0h-5.9m-11.8 0h-5.9m-11.8 0h-5.9m-11.78 0h-5.9m-11.8 0h-5.9m-11.8 0h-5.88m-11.8 0h-5.9m-11.8 0h-5.9m-11.78 0h-5.9m-11.8 0h-5.9m-11.8 0h-5.9m-11.78 0h-5.9m-11.8 0h-5.9m-11.8 0h-5.88m-11.8 0h-5.9m-11.8 0h-5.9m-11.78 0h-5.9m-11.8 0h-5.9m-11.8 0h-5.88m-11.8 0h-5.9m-11.8 0H1260v-3m0-12v-6m0-12v-6m0-12v-6m0-12v-6m0-12v-6m0-12v-6m0-12v-6m0-12v-6m0-12v-6m0-12v-6m0-12v-6m0-12v-6m0-12v-6m0-12v-6m0-12v-6m0-12v-6m0-12v-6m0-12v-6m0-12v-6m0-12v-3h2.95" stroke="#5e5e5e" stroke-width="3" fill="none"/><path d="M100 100h700v520H100z" fill-opacity="0"/><path d="M114.96 100h5.98m11.97 0h6m11.95 0h6m11.95 0h6m11.95 0h6m11.95 0h5.98m11.97 0h5.98m11.97 0h5.98m11.97 0h5.98m11.97 0h5.98m11.96 0h6m11.95 0h5.98m11.96 0h5.98m11.97 0h5.97m11.97 0h5.98m11.97 0h5.97m11.97 0h5.98m11.97 0h5.97m11.96 0h6m11.95 0h6m11.95 0h5.98m11.98 0h5.98m11.97 0h5.98m11.98 0h5.98m11.97 0h5.98m11.98 0h5.98m11.96 0h6m11.95 0h6m11.95 0h5.98m11.97 0h5.98m11.97 0h5.98m11.97 0h5.98m11.97 0h5.98m11.96 0h6m11.95 0h6m11.96 0h6m11.95 0h6m11.96 0h5.98m11.97 0h3v3m0 11.94v5.98m0 11.95v5.98m0 11.95v5.98m0 11.96v5.97m0 11.97v5.97m0 11.96v5.97m0 11.96v5.98m0 11.96v5.98m0 11.95v5.97m0 11.95v5.98m0 11.95v5.98m0 11.95v5.98m0 11.95v6m0 11.95v5.97m0 11.96v5.97m0 11.96v6m0 11.94v5.98m0 11.95v5.98m0 11.95v5.98m0 11.95v5.98m0 11.96v5.98m0 11.95v5.97m0 11.96v5.97m0 11.96v5.97m0 11.96v5.96m0 11.96v5.98m0 11.95v5.98m0 11.95v5.98m0 11.95v3h-3m-11.96 0h-5.98m-11.97 0h-6m-11.95 0h-6m-11.95 0h-6m-11.95 0h-6m-11.95 0h-5.98m-11.97 0h-5.98m-11.97 0h-5.98m-11.97 0h-5.98m-11.97 0h-5.98m-11.96 0h-6m-11.95 0h-5.98m-11.96 0h-5.98m-11.97 0h-5.97m-11.97 0h-5.98m-11.97 0h-5.97m-11.97 0h-5.98m-11.97 0h-5.97m-11.96 0h-6m-11.95 0h-6m-11.95 0h-5.98m-11.98 0h-5.98m-11.97 0h-5.98m-11.98 0h-5.98m-11.97 0h-5.98m-11.98 0h-5.98m-11.96 0h-6m-11.95 0h-6m-11.95 0h-5.98m-11.97 0h-5.98m-11.97 0h-5.98m-11.97 0h-5.98m-11.97 0h-5.98m-11.96 0h-6m-11.95 0h-6m-11.96 0h-6m-11.95 0h-6m-11.96 0h-5.98M103 620h-3v-3m0-11.94v-5.98m0-11.95v-5.98m0-11.95v-5.98m0-11.96v-5.97m0-11.97v-5.97m0-11.96v-5.97m0-11.96v-5.98m0-11.96v-5.98m0-11.95v-5.97m0-11.95v-5.98m0-11.95v-5.98m0-11.95v-5.98m0-11.95v-6m0-11.95v-5.97m0-11.96v-5.97m0-11.96v-6m0-11.94v-5.98m0-11.95v-5.98m0-11.95v-5.98m0-11.95v-5.98m0-11.96v-5.98m0-11.95v-5.97m0-11.96v-5.97m0-11.96v-5.97m0-11.96v-5.96m0-11.96v-5.98m0-11.95v-5.98m0-11.95v-5.98m0-11.95v-3h3" stroke="#5e5e5e" stroke-width="3" fill="none"/><path d="M120 126c0-3.3 2.7-6 6-6h148c3.3 0 6 2.7 6 6v68c0 3.3-2.7 6-6 6H126c-3.3 0-6-2.7-6-6z" stroke="#5e5e5e" stroke-width="3" fill="#fff"/><use xlink:href="#a" transform="matrix(1,0,0,1,125,125) translate(32.43827160493827 26.52777777777778)"/><use xlink:href="#b" transform="matrix(1,0,0,1,125,125) translate(16.3888888888889 53.19444444444445)"/><use xlink:href="#c" transform="matrix(1,0,0,1,125,125) translate(63.302469135802475 53.19444444444445)"/><path d="M120 226c0-3.3 2.7-6 6-6h148c3.3 0 6 2.7 6 6v68c0 3.3-2.7 6-6 6H126c-3.3 0-6-2.7-6-6z" stroke="#5e5e5e" stroke-width="3" fill="#fff"/><use xlink:href="#d" transform="matrix(1,0,0,1,132,232) translate(44.543209876543216 31.77777777777778)"/><path d="M120 326c0-3.3 2.7-6 6-6h148c3.3 0 6 2.7 6 6v68c0 3.3-2.7 6-6 6H126c-3.3 0-6-2.7-6-6z" stroke="#5e5e5e" stroke-width="3" fill="#fff"/><use xlink:href="#e" transform="matrix(1,0,0,1,132,332) translate(17.44444444444445 17.77777777777778)"/><use xlink:href="#f" transform="matrix(1,0,0,1,132,332) translate(47.69135802469136 44.44444444444444)"/><path d="M120 426c0-3.3 2.7-6 6-6h148c3.3 0 6 2.7 6 6v68c0 3.3-2.7 6-6 6H126c-3.3 0-6-2.7-6-6z" stroke="#5e5e5e" stroke-width="3" fill="#fff"/><use xlink:href="#g" transform="matrix(1,0,0,1,132,432) translate(27.320987654320987 17.77777777777778)"/><use xlink:href="#h" transform="matrix(1,0,0,1,132,432) translate(24.913580246913583 44.44444444444444)"/><path d="M120 526c0-3.3 2.7-6 6-6h148c3.3 0 6 2.7 6 6v68c0 3.3-2.7 6-6 6H126c-3.3 0-6-2.7-6-6z" stroke="#5e5e5e" stroke-width="3" fill="#fff"/><use xlink:href="#i" transform="matrix(1,0,0,1,132,532) translate(19.265432098765437 17.77777777777778)"/><use xlink:href="#j" transform="matrix(1,0,0,1,132,532) translate(23.617283950617278 44.44444444444444)"/><path d="M400 206c0-3.3 2.7-6 6-6h148c3.3 0 6 2.7 6 6v288c0 3.3-2.7 6-6 6H406c-3.3 0-6-2.7-6-6z" stroke="#5e5e5e" stroke-width="3" fill="#fff"/><use xlink:href="#k" transform="matrix(1,0,0,1,412,212) translate(29.79012345679012 129.90277777777777)"/><use xlink:href="#l" transform="matrix(1,0,0,1,412,212) translate(1.9814814814814952 156.56944444444443)"/><use xlink:href="#m" transform="matrix(1,0,0,1,412,212) translate(61.17901234567903 156.56944444444443)"/><use xlink:href="#n" transform="matrix(1,0,0,1,412,212) translate(92.04320987654322 156.56944444444443)"/><path d="M282.5 160H334c3.3 0 6 2.7 6 6v126.67c0 3.3 2.7 6 6 6h34" stroke="#5e5e5e" stroke-width="2" fill="none"/><path d="M282.53 161h-1.03v-2h1.03z" fill="#5e5e5e"/><path d="M395.26 298.67L381 303.3v-9.27z" stroke="#5e5e5e" stroke-width="2" fill="#5e5e5e"/><path d="M282.5 260H314c3.3 0 6 2.7 6 6v48c0 3.3 2.7 6 6 6h54" stroke="#5e5e5e" stroke-width="2" fill="none"/><path d="M282.53 261h-1.03v-2h1.03z" fill="#5e5e5e"/><path d="M395.26 320L381 324.64v-9.28z" stroke="#5e5e5e" stroke-width="2" fill="#5e5e5e"/><path d="M282.5 360H314c3.3 0 6-2.7 6-6v-9.37c0-3.3 2.7-6 6-6h54" stroke="#5e5e5e" stroke-width="2" fill="none"/><path d="M282.53 361h-1.03v-2h1.03z" fill="#5e5e5e"/><path d="M395.26 338.63L381 343.27V334z" stroke="#5e5e5e" stroke-width="2" fill="#5e5e5e"/><path d="M282.5 460H314c3.3 0 6-2.7 6-6v-87.32c0-3.32 2.7-6 6-6h54" stroke="#5e5e5e" stroke-width="2" fill="none"/><path d="M282.53 461h-1.03v-2h1.03z" fill="#5e5e5e"/><path d="M395.26 360.68L381 365.3v-9.26z" stroke="#5e5e5e" stroke-width="2" fill="#5e5e5e"/><path d="M282.5 560H334c3.3 0 6-2.7 6-6V384.32c0-3.32 2.7-6 6-6h34" stroke="#5e5e5e" stroke-width="2" fill="none"/><path d="M282.53 561h-1.03v-2h1.03z" fill="#5e5e5e"/><path d="M395.26 378.32L381 382.95v-9.27z" stroke="#5e5e5e" stroke-width="2" fill="#5e5e5e"/><path d="M620 206c0-3.3 2.7-6 6-6h148c3.3 0 6 2.7 6 6v108c0 3.3-2.7 6-6 6H626c-3.3 0-6-2.7-6-6z" stroke="#5e5e5e" stroke-width="3" fill="#fff"/><use xlink:href="#o" transform="matrix(1,0,0,1,632,212) translate(39.66666666666667 38.77777777777778)"/><use xlink:href="#p" transform="matrix(1,0,0,1,632,212) translate(39.04938271604938 65.44444444444446)"/><path d="M620 406c0-3.3 2.7-6 6-6h148c3.3 0 6 2.7 6 6v108c0 3.3-2.7 6-6 6H626c-3.3 0-6-2.7-6-6z" stroke="#5e5e5e" stroke-width="3" fill="#fff"/><use xlink:href="#q" transform="matrix(1,0,0,1,632,412) translate(25.5 53.77777777777778)"/><use xlink:href="#r" transform="matrix(1,0,0,1,632,412) translate(62.47530864197531 53.77777777777778)"/><path d="M562.5 336H584c3.3 0 6-2.7 6-6v-64c0-3.3 2.7-6 6-6h4" stroke="#5e5e5e" stroke-width="2" fill="none"/><path d="M562.53 337h-1.03v-2h1.03z" fill="#5e5e5e"/><path d="M615.26 260L601 264.64v-9.28z" stroke="#5e5e5e" stroke-width="2" fill="#5e5e5e"/><path d="M562.5 359.8H584c3.3 0 6 2.68 6 6V454c0 3.3 2.7 6 6 6h4" stroke="#5e5e5e" stroke-width="2" fill="none"/><path d="M562.53 360.8h-1.03v-2h1.03z" fill="#5e5e5e"/><path d="M615.26 460L601 464.64v-9.28z" stroke="#5e5e5e" stroke-width="2" fill="#5e5e5e"/><path d="M320 26c0-3.3 2.7-6 6-6h228c3.3 0 6 2.7 6 6v70c0 3.3-2.7 6-6 6H326c-3.3 0-6-2.7-6-6z" stroke="#000" stroke-opacity="0" stroke-width="3" fill="#fff" fill-opacity="0"/><use xlink:href="#s" transform="matrix(1,0,0,1,325,25) translate(20.083333333333442 50.24999999999994)"/><path d="M1000 102h740v458h-740z" fill-opacity="0"/><path d="M1015.04 102h6.02m12.03 0h6m12.04 0h6m12.05 0h6m12.04 0h6m12.04 0h6.02m12.03 0h6.02m12.03 0h6.02m12.03 0h6.02m12.03 0h6.02m12.03 0h6m12.05 0h6m12.05 0h6m12.04 0h6.02m12.02 0h6.02m12.03 0h6.02m12.02 0h6.02m12.03 0h6.02m12.02 0h6m12.05 0h6m12.05 0h6m12.05 0h6m12.04 0h6.03m12.03 0h6.02m12.03 0h6.03m12.03 0h6.02m12.03 0h6.03m12.03 0h6m12.05 0h6.02m12.04 0h6m12.04 0h6.02m12.03 0h6.02m12.03 0h6.02m12.03 0h6.02m12.03 0h6.02m12.03 0h6m12.05 0h6m12.05 0h6m12.04 0h6m12.04 0h6.02m12.03 0h3v3.05m0 12.22v6.1m0 12.22v6.1m0 12.2v6.1m0 12.23v6.1m0 12.22v6.1m0 12.22v6.1m0 12.22v6.1m0 12.2v6.1m0 12.23v6.1m0 12.22v6.1m0 12.22v6.1m0 12.22v6.1m0 12.2v6.1m0 12.23v6.1m0 12.22v6.1m0 12.22v6.1m0 12.22v6.1m0 12.2v6.1m0 12.23v6.1m0 12.22v6.1m0 12.22v6.1m0 12.22v6.1m0 12.2v6.1m0 12.23v6.1m0 12.22V560h-3m-12.04 0h-6.02m-12.03 0h-6m-12.04 0h-6m-12.05 0h-6m-12.04 0h-6m-12.04 0h-6.02m-12.03 0h-6.02m-12.03 0h-6.02m-12.03 0h-6.02m-12.03 0h-6.02m-12.03 0h-6m-12.05 0h-6m-12.05 0h-6m-12.04 0h-6.02m-12.02 0h-6.02m-12.03 0h-6.02m-12.02 0h-6.02m-12.03 0h-6.02m-12.02 0h-6m-12.05 0h-6m-12.05 0h-6m-12.05 0h-6m-12.04 0h-6.03m-12.03 0h-6.02m-12.03 0h-6.03m-12.03 0h-6.02m-12.03 0h-6.03m-12.03 0h-6m-12.05 0h-6.02m-12.04 0h-6m-12.04 0h-6.02m-12.03 0h-6.02m-12.03 0h-6.02m-12.03 0h-6.02m-12.03 0h-6.02m-12.03 0h-6m-12.05 0h-6m-12.05 0h-6m-12.04 0h-6m-12.04 0h-6.02m-12.03 0h-3v-3.05m0-12.22v-6.1m0-12.22v-6.1m0-12.2V502m0-12.23v-6.1m0-12.22v-6.1m0-12.22v-6.1m0-12.22v-6.1m0-12.2v-6.1m0-12.23v-6.1m0-12.22v-6.1m0-12.22v-6.1m0-12.22v-6.1m0-12.2v-6.1m0-12.23v-6.1m0-12.22v-6.1m0-12.22v-6.1m0-12.22v-6.1m0-12.2v-6.1m0-12.23v-6.1m0-12.22v-6.1m0-12.22v-6.1m0-12.22v-6.1m0-12.2v-6.1m0-12.23v-6.1m0-12.22V102h3" stroke="#5e5e5e" stroke-width="3" fill="none"/><path d="M1020 206c0-3.3 2.7-6 6-6h148c3.3 0 6 2.7 6 6v108c0 3.3-2.7 6-6 6h-148c-3.3 0-6-2.7-6-6z" stroke="#5e5e5e" stroke-width="3" fill="#fff"/><use xlink:href="#o" transform="matrix(1,0,0,1,1032,212) translate(39.66666666666667 38.77777777777778)"/><use xlink:href="#p" transform="matrix(1,0,0,1,1032,212) translate(39.04938271604938 65.44444444444446)"/><path d="M782.5 260H1000" stroke="#5e5e5e" stroke-width="2" fill="none"/><path d="M782.53 261h-1.03v-2h1.03z" fill="#5e5e5e"/><path d="M1015.26 260l-14.26 4.64v-9.28z" stroke="#5e5e5e" stroke-width="2" fill="#5e5e5e"/><path d="M780 206c0-3.3 2.7-6 6-6h228c3.3 0 6 2.7 6 6v48c0 3.3-2.7 6-6 6H786c-3.3 0-6-2.7-6-6z" stroke="#000" stroke-opacity="0" stroke-width="3" fill="#fff" fill-opacity="0"/><use xlink:href="#t" transform="matrix(1,0,0,1,785,205) translate(41.67283950617286 31.13888888888888)"/><use xlink:href="#u" transform="matrix(1,0,0,1,785,205) translate(131.37654320987653 31.13888888888888)"/><path d="M1180 26c0-3.3 2.7-6 6-6h368c3.3 0 6 2.7 6 6v70c0 3.3-2.7 6-6 6h-368c-3.3 0-6-2.7-6-6z" stroke="#000" stroke-opacity="0" stroke-width="3" fill="#fff" fill-opacity="0"/><use xlink:href="#v" transform="matrix(1,0,0,1,1185,25) translate(15.583333333333542 50.24999999999994)"/><use xlink:href="#w" transform="matrix(1,0,0,1,1185,25) translate(168.91666666666669 50.24999999999994)"/><path d="M1300 206c0-3.3 2.7-6 6-6h148c3.3 0 6 2.7 6 6v108c0 3.3-2.7 6-6 6h-148c-3.3 0-6-2.7-6-6z" stroke="#5e5e5e" stroke-width="3" fill="#fff"/><use xlink:href="#x" transform="matrix(1,0,0,1,1312,212) translate(26.086419753086417 53.77777777777778)"/><path d="M1540 406c0-3.3 2.7-6 6-6h148c3.3 0 6 2.7 6 6v108c0 3.3-2.7 6-6 6h-148c-3.3 0-6-2.7-6-6z" stroke="#5e5e5e" stroke-width="3" fill="#fff"/><use xlink:href="#y" transform="matrix(1,0,0,1,1552,412) translate(9.666666666666671 53.77777777777778)"/><use xlink:href="#z" transform="matrix(1,0,0,1,1552,412) translate(61.0246913580247 53.77777777777778)"/><path d="M1540 206c0-3.3 2.7-6 6-6h148c3.3 0 6 2.7 6 6v108c0 3.3-2.7 6-6 6h-148c-3.3 0-6-2.7-6-6z" stroke="#5e5e5e" stroke-width="3" fill="#fff"/><use xlink:href="#A" transform="matrix(1,0,0,1,1552,212) translate(46.17901234567901 38.77777777777778)"/><use xlink:href="#B" transform="matrix(1,0,0,1,1552,212) translate(20.5 65.44444444444446)"/><path d="M1462.5 260h57.5" stroke="#5e5e5e" stroke-width="2" fill="none"/><path d="M1462.53 261h-1.03v-2h1.03z" fill="#5e5e5e"/><path d="M1535.26 260l-14.26 4.64v-9.28z" stroke="#5e5e5e" stroke-width="2" fill="#5e5e5e"/><path d="M1320 86c0-3.3 2.7-6 6-6h368c3.3 0 6 2.7 6 6v142c0 3.3-2.7 6-6 6h-368c-3.3 0-6-2.7-6-6z" stroke="#000" stroke-opacity="0" stroke-width="3" fill="#fff" fill-opacity="0"/><g><use xlink:href="#C" transform="matrix(1,0,0,1,1325,85) translate(31.500000000000313 82.33333333333326)"/><use xlink:href="#D" transform="matrix(1,0,0,1,1325,85) translate(259.2592592592591 82.33333333333326)"/><use xlink:href="#E" transform="matrix(1,0,0,1,1325,85) translate(313.5740740740738 82.33333333333326)"/></g><path d="M1182.5 260h97.5" stroke="#5e5e5e" stroke-width="2" fill="none"/><path d="M1182.53 261h-1.03v-2h1.03z" fill="#5e5e5e"/><path d="M1295.26 260l-14.26 4.64v-9.28z" stroke="#5e5e5e" stroke-width="2" fill="#5e5e5e"/><path d="M1620 322.5V380" stroke="#5e5e5e" stroke-width="2" fill="none"/><path d="M1621 322.53h-2v-1.03h2z" fill="#5e5e5e"/><path d="M1620 395.26l-4.64-14.26h9.28z" stroke="#5e5e5e" stroke-width="2" fill="#5e5e5e"/><path d="M1000 706c0-3.3 2.7-6 6-6h728c3.3 0 6 2.7 6 6v328c0 3.3-2.7 6-6 6h-728c-3.3 0-6-2.7-6-6z" stroke="#5e5e5e" stroke-width="3" fill="#fff"/><g><use xlink:href="#F" transform="matrix(1,0,0,1,1012,712) translate(252.75308641975326 144.26736111111103)"/><use xlink:href="#G" transform="matrix(1,0,0,1,1012,712) translate(28.543209876544097 210.93402777777754)"/><use xlink:href="#H" transform="matrix(1,0,0,1,1012,712) translate(226.40740740740773 210.93402777777754)"/><use xlink:href="#I" transform="matrix(1,0,0,1,1012,712) translate(335.0493827160494 210.93402777777754)"/><use xlink:href="#J" transform="matrix(1,0,0,1,1012,712) translate(410.9629629629628 210.93402777777754)"/><use xlink:href="#K" transform="matrix(1,0,0,1,1012,712) translate(514.0370370370366 210.93402777777754)"/></g><path d="M1620 522.5V604c0 3.3-2.7 6-6 6h-238c-3.3 0-6 2.7-6 6v64" stroke="#5e5e5e" stroke-width="2" fill="none"/><path d="M1621 522.53h-2v-1.03h2z" fill="#5e5e5e"/><path d="M1370 695.26l-4.64-14.26h9.28z" stroke="#5e5e5e" stroke-width="2" fill="#5e5e5e"/><defs><path fill="#333" d="M160-131c35 5 61 23 61 61C221 17 115-2 30 0v-248c76 3 177-17 177 60 0 33-19 50-47 57zm-97-11c50-1 110 9 110-42 0-47-63-36-110-37v79zm0 115c55-2 124 14 124-45 0-56-70-42-124-44v89" id="L"/><path fill="#333" d="M240 0l2-218c-23 76-54 145-80 218h-23L58-218 59 0H30v-248h44l77 211c21-75 51-140 76-211h43V0h-30" id="M"/><path fill="#333" d="M30 0v-248h187v28H63v79h144v27H63v87h162V0H30" id="N"/><path fill="#333" d="M110-160c48 1 74 30 74 79 0 53-28 85-80 85-65 0-83-55-86-122-5-90 50-162 133-122 14 7 22 21 27 39l-31 6c-5-40-67-38-82-6-9 19-15 44-15 74 11-20 30-34 60-33zm-7 138c34 0 49-23 49-58s-16-56-50-56c-29 0-50 16-49 49 1 36 15 65 50 65" id="O"/><path fill="#333" d="M134-131c28 9 52 24 51 62-1 50-34 73-85 73S17-19 16-69c0-36 21-54 49-61-75-25-45-126 34-121 46 3 78 18 79 63 0 33-17 51-44 57zm-34-11c31 1 46-15 46-44 0-28-17-43-47-42-29 0-46 13-45 42 1 28 16 44 46 44zm1 122c35 0 51-18 51-52 0-30-18-46-53-46-33 0-51 17-51 47 0 34 19 51 53 51" id="P"/><path fill="#333" d="M101-251c68 0 85 55 85 127S166 4 100 4C33 4 14-52 14-124c0-73 17-127 87-127zm-1 229c47 0 54-49 54-102s-4-102-53-102c-51 0-55 48-55 102 0 53 5 102 54 102" id="Q"/><g id="a"><use transform="matrix(0.06172839506172839,0,0,0.06172839506172839,0,0)" xlink:href="#L"/><use transform="matrix(0.06172839506172839,0,0,0.06172839506172839,14.814814814814813,0)" xlink:href="#M"/><use transform="matrix(0.06172839506172839,0,0,0.06172839506172839,33.2716049382716,0)" xlink:href="#N"/><use transform="matrix(0.06172839506172839,0,0,0.06172839506172839,48.08641975308642,0)" xlink:href="#O"/><use transform="matrix(0.06172839506172839,0,0,0.06172839506172839,60.432098765432094,0)" xlink:href="#P"/><use transform="matrix(0.06172839506172839,0,0,0.06172839506172839,72.77777777777777,0)" xlink:href="#Q"/></g><path fill="#333" d="M143 4C61 4 22-44 18-125c-5-107 100-154 193-111 17 8 29 25 37 43l-32 9c-13-25-37-40-76-40-61 0-88 39-88 99 0 61 29 100 91 101 35 0 62-11 79-27v-45h-74v-28h105v86C228-13 192 4 143 4" id="R"/><path fill="#333" d="M141-36C126-15 110 5 73 4 37 3 15-17 15-53c-1-64 63-63 125-63 3-35-9-54-41-54-24 1-41 7-42 31l-33-3c5-37 33-52 76-52 45 0 72 20 72 64v82c-1 20 7 32 28 27v20c-31 9-61-2-59-35zM48-53c0 20 12 33 32 33 41-3 63-29 60-74-43 2-92-5-92 41" id="S"/><path fill="#333" d="M135-143c-3-34-86-38-87 0 15 53 115 12 119 90S17 21 10-45l28-5c4 36 97 45 98 0-10-56-113-15-118-90-4-57 82-63 122-42 12 7 21 19 24 35" id="T"/><g id="b"><use transform="matrix(0.06172839506172839,0,0,0.06172839506172839,0,0)" xlink:href="#R"/><use transform="matrix(0.06172839506172839,0,0,0.06172839506172839,17.28395061728395,0)" xlink:href="#S"/><use transform="matrix(0.06172839506172839,0,0,0.06172839506172839,29.629629629629626,0)" xlink:href="#T"/></g><path fill="#333" d="M185-189c-5-48-123-54-124 2 14 75 158 14 163 119 3 78-121 87-175 55-17-10-28-26-33-46l33-7c5 56 141 63 141-1 0-78-155-14-162-118-5-82 145-84 179-34 5 7 8 16 11 25" id="U"/><path fill="#333" d="M100-194c63 0 86 42 84 106H49c0 40 14 67 53 68 26 1 43-12 49-29l28 8c-11 28-37 45-77 45C44 4 14-33 15-96c1-61 26-98 85-98zm52 81c6-60-76-77-97-28-3 7-6 17-6 28h103" id="V"/><path fill="#333" d="M117-194c89-4 53 116 60 194h-32v-121c0-31-8-49-39-48C34-167 62-67 57 0H25l-1-190h30c1 10-1 24 2 32 11-22 29-35 61-36" id="W"/><path fill="#333" d="M100-194c62-1 85 37 85 99 1 63-27 99-86 99S16-35 15-95c0-66 28-99 85-99zM99-20c44 1 53-31 53-75 0-43-8-75-51-75s-53 32-53 75 10 74 51 75" id="X"/><path fill="#333" d="M114-163C36-179 61-72 57 0H25l-1-190h30c1 12-1 29 2 39 6-27 23-49 58-41v29" id="Y"/><g id="c"><use transform="matrix(0.06172839506172839,0,0,0.06172839506172839,0,0)" xlink:href="#U"/><use transform="matrix(0.06172839506172839,0,0,0.06172839506172839,14.814814814814813,0)" xlink:href="#V"/><use transform="matrix(0.06172839506172839,0,0,0.06172839506172839,27.160493827160494,0)" xlink:href="#W"/><use transform="matrix(0.06172839506172839,0,0,0.06172839506172839,39.50617283950617,0)" xlink:href="#T"/><use transform="matrix(0.06172839506172839,0,0,0.06172839506172839,50.61728395061728,0)" xlink:href="#X"/><use transform="matrix(0.06172839506172839,0,0,0.06172839506172839,62.962962962962955,0)" xlink:href="#Y"/></g><path fill="#333" d="M30-248c87 1 191-15 191 75 0 78-77 80-158 76V0H30v-248zm33 125c57 0 124 11 124-50 0-59-68-47-124-48v98" id="Z"/><g id="d"><use transform="matrix(0.06172839506172839,0,0,0.06172839506172839,0,0)" xlink:href="#R"/><use transform="matrix(0.06172839506172839,0,0,0.06172839506172839,17.28395061728395,0)" xlink:href="#Z"/><use transform="matrix(0.06172839506172839,0,0,0.06172839506172839,32.09876543209876,0)" xlink:href="#U"/></g><path fill="#333" d="M30 0v-248h33v221h125V0H30" id="aa"/><path fill="#333" d="M99-251c64 0 84 50 84 122C183-37 130 33 47-8c-14-7-20-23-25-40l30-5c6 39 69 39 84 7 9-19 16-44 16-74-10 22-31 35-62 35-49 0-73-33-73-83 0-54 28-83 82-83zm-1 141c31-1 51-18 51-49 0-36-14-67-51-67-34 0-49 23-49 58 0 34 15 58 49 58" id="ab"/><path fill="#333" d="M30-248c118-7 216 8 213 122C240-48 200 0 122 0H30v-248zM63-27c89 8 146-16 146-99s-60-101-146-95v194" id="ac"/><path fill="#333" d="M27 0v-27h64v-190l-56 39v-29l58-41h29v221h61V0H27" id="ad"/><g id="e"><use transform="matrix(0.06172839506172839,0,0,0.06172839506172839,0,0)" xlink:href="#aa"/><use transform="matrix(0.06172839506172839,0,0,0.06172839506172839,12.345679012345679,0)" xlink:href="#U"/><use transform="matrix(0.06172839506172839,0,0,0.06172839506172839,27.160493827160494,0)" xlink:href="#M"/><use transform="matrix(0.06172839506172839,0,0,0.06172839506172839,45.61728395061728,0)" xlink:href="#ab"/><use transform="matrix(0.06172839506172839,0,0,0.06172839506172839,57.962962962962955,0)" xlink:href="#ac"/><use transform="matrix(0.06172839506172839,0,0,0.06172839506172839,73.9506172839506,0)" xlink:href="#U"/><use transform="matrix(0.06172839506172839,0,0,0.06172839506172839,88.76543209876542,0)" xlink:href="#ad"/></g><path fill="#333" d="M33 0v-248h34V0H33" id="ae"/><path fill="#333" d="M232-93c-1 65-40 97-104 97C67 4 28-28 28-90v-158h33c8 89-33 224 67 224 102 0 64-133 71-224h33v155" id="af"/><g id="f"><use transform="matrix(0.06172839506172839,0,0,0.06172839506172839,0,0)" xlink:href="#ae"/><use transform="matrix(0.06172839506172839,0,0,0.06172839506172839,6.172839506172839,0)" xlink:href="#M"/><use transform="matrix(0.06172839506172839,0,0,0.06172839506172839,24.629629629629626,0)" xlink:href="#af"/></g><path fill="#333" d="M197 0v-115H63V0H30v-248h33v105h134v-105h34V0h-34" id="ag"/><path fill="#333" d="M127-220V0H93v-220H8v-28h204v28h-85" id="ah"/><path fill="#333" d="M101-251c82-7 93 87 43 132L82-64C71-53 59-42 53-27h129V0H18c2-99 128-94 128-182 0-28-16-43-45-43s-46 15-49 41l-32-3c6-41 34-60 81-64" id="ai"/><g id="g"><use transform="matrix(0.06172839506172839,0,0,0.06172839506172839,0,0)" xlink:href="#ag"/><use transform="matrix(0.06172839506172839,0,0,0.06172839506172839,15.987654320987653,0)" xlink:href="#ah"/><use transform="matrix(0.06172839506172839,0,0,0.06172839506172839,29.50617283950617,0)" xlink:href="#U"/><use transform="matrix(0.06172839506172839,0,0,0.06172839506172839,44.32098765432099,0)" xlink:href="#ai"/><use transform="matrix(0.06172839506172839,0,0,0.06172839506172839,56.666666666666664,0)" xlink:href="#ai"/><use transform="matrix(0.06172839506172839,0,0,0.06172839506172839,69.01234567901234,0)" xlink:href="#ad"/></g><path fill="#333" d="M84 4C-5 8 30-112 23-190h32v120c0 31 7 50 39 49 72-2 45-101 50-169h31l1 190h-30c-1-10 1-25-2-33-11 22-28 36-60 37" id="aj"/><path fill="#333" d="M210-169c-67 3-38 105-44 169h-31v-121c0-29-5-50-35-48C34-165 62-65 56 0H25l-1-190h30c1 10-1 24 2 32 10-44 99-50 107 0 11-21 27-35 58-36 85-2 47 119 55 194h-31v-121c0-29-5-49-35-48" id="ak"/><path fill="#333" d="M24-231v-30h32v30H24zM24 0v-190h32V0H24" id="al"/><path fill="#333" d="M85-194c31 0 48 13 60 33l-1-100h32l1 261h-30c-2-10 0-23-3-31C134-8 116 4 85 4 32 4 16-35 15-94c0-66 23-100 70-100zm9 24c-40 0-46 34-46 75 0 40 6 74 45 74 42 0 51-32 51-76 0-42-9-74-50-73" id="am"/><path fill="#333" d="M59-47c-2 24 18 29 38 22v24C64 9 27 4 27-40v-127H5v-23h24l9-43h21v43h35v23H59v120" id="an"/><path fill="#333" d="M179-190L93 31C79 59 56 82 12 73V49c39 6 53-20 64-50L1-190h34L92-34l54-156h33" id="ao"/><g id="h"><use transform="matrix(0.06172839506172839,0,0,0.06172839506172839,0,0)" xlink:href="#ag"/><use transform="matrix(0.06172839506172839,0,0,0.06172839506172839,15.987654320987653,0)" xlink:href="#aj"/><use transform="matrix(0.06172839506172839,0,0,0.06172839506172839,28.333333333333332,0)" xlink:href="#ak"/><use transform="matrix(0.06172839506172839,0,0,0.06172839506172839,46.79012345679012,0)" xlink:href="#al"/><use transform="matrix(0.06172839506172839,0,0,0.06172839506172839,51.666666666666664,0)" xlink:href="#am"/><use transform="matrix(0.06172839506172839,0,0,0.06172839506172839,64.01234567901234,0)" xlink:href="#al"/><use transform="matrix(0.06172839506172839,0,0,0.06172839506172839,68.88888888888889,0)" xlink:href="#an"/><use transform="matrix(0.06172839506172839,0,0,0.06172839506172839,75.06172839506172,0)" xlink:href="#ao"/></g><g id="i"><use transform="matrix(0.06172839506172839,0,0,0.06172839506172839,0,0)" xlink:href="#aa"/><use transform="matrix(0.06172839506172839,0,0,0.06172839506172839,12.345679012345679,0)" xlink:href="#Z"/><use transform="matrix(0.06172839506172839,0,0,0.06172839506172839,27.160493827160494,0)" xlink:href="#U"/><use transform="matrix(0.06172839506172839,0,0,0.06172839506172839,41.9753086419753,0)" xlink:href="#ai"/><use transform="matrix(0.06172839506172839,0,0,0.06172839506172839,54.32098765432098,0)" xlink:href="#ai"/><use transform="matrix(0.06172839506172839,0,0,0.06172839506172839,66.66666666666666,0)" xlink:href="#ag"/><use transform="matrix(0.06172839506172839,0,0,0.06172839506172839,82.65432098765432,0)" xlink:href="#L"/></g><g id="j"><use transform="matrix(0.06172839506172839,0,0,0.06172839506172839,0,0)" xlink:href="#Z"/><use transform="matrix(0.06172839506172839,0,0,0.06172839506172839,14.814814814814813,0)" xlink:href="#Y"/><use transform="matrix(0.06172839506172839,0,0,0.06172839506172839,22.160493827160494,0)" xlink:href="#V"/><use transform="matrix(0.06172839506172839,0,0,0.06172839506172839,34.50617283950617,0)" xlink:href="#T"/><use transform="matrix(0.06172839506172839,0,0,0.06172839506172839,45.61728395061728,0)" xlink:href="#T"/><use transform="matrix(0.06172839506172839,0,0,0.06172839506172839,56.72839506172839,0)" xlink:href="#aj"/><use transform="matrix(0.06172839506172839,0,0,0.06172839506172839,69.07407407407408,0)" xlink:href="#Y"/><use transform="matrix(0.06172839506172839,0,0,0.06172839506172839,76.41975308641976,0)" xlink:href="#V"/></g><path fill="#333" d="M205 0l-28-72H64L36 0H1l101-248h38L239 0h-34zm-38-99l-47-123c-12 45-31 82-46 123h93" id="ap"/><g id="k"><use transform="matrix(0.06172839506172839,0,0,0.06172839506172839,0,0)" xlink:href="#ap"/><use transform="matrix(0.06172839506172839,0,0,0.06172839506172839,14.814814814814813,0)" xlink:href="#Y"/><use transform="matrix(0.06172839506172839,0,0,0.06172839506172839,22.160493827160494,0)" xlink:href="#am"/><use transform="matrix(0.06172839506172839,0,0,0.06172839506172839,34.50617283950617,0)" xlink:href="#aj"/><use transform="matrix(0.06172839506172839,0,0,0.06172839506172839,46.85185185185185,0)" xlink:href="#al"/><use transform="matrix(0.06172839506172839,0,0,0.06172839506172839,51.72839506172839,0)" xlink:href="#W"/><use transform="matrix(0.06172839506172839,0,0,0.06172839506172839,64.07407407407408,0)" xlink:href="#X"/></g><path fill="#333" d="M190 0L58-211 59 0H30v-248h39L202-35l-2-213h31V0h-41" id="aq"/><g id="l"><use transform="matrix(0.06172839506172839,0,0,0.06172839506172839,0,0)" xlink:href="#aq"/><use transform="matrix(0.06172839506172839,0,0,0.06172839506172839,15.987654320987653,0)" xlink:href="#S"/><use transform="matrix(0.06172839506172839,0,0,0.06172839506172839,28.333333333333332,0)" xlink:href="#W"/><use transform="matrix(0.06172839506172839,0,0,0.06172839506172839,40.67901234567901,0)" xlink:href="#X"/></g><path fill="#333" d="M126-127c33 6 58 20 58 59 0 88-139 92-164 29-3-8-5-16-6-25l32-3c6 27 21 44 54 44 32 0 52-15 52-46 0-38-36-46-79-43v-28c39 1 72-4 72-42 0-27-17-43-46-43-28 0-47 15-49 41l-32-3c6-42 35-63 81-64 48-1 79 21 79 65 0 36-21 52-52 59" id="ar"/><g id="m"><use transform="matrix(0.06172839506172839,0,0,0.06172839506172839,0,0)" xlink:href="#ar"/><use transform="matrix(0.06172839506172839,0,0,0.06172839506172839,12.345679012345679,0)" xlink:href="#ar"/></g><g id="n"><use transform="matrix(0.06172839506172839,0,0,0.06172839506172839,0,0)" xlink:href="#L"/><use transform="matrix(0.06172839506172839,0,0,0.06172839506172839,14.814814814814813,0)" xlink:href="#aa"/><use transform="matrix(0.06172839506172839,0,0,0.06172839506172839,27.160493827160494,0)" xlink:href="#N"/></g><path fill="#333" d="M212-179c-10-28-35-45-73-45-59 0-87 40-87 99 0 60 29 101 89 101 43 0 62-24 78-52l27 14C228-24 195 4 139 4 59 4 22-46 18-125c-6-104 99-153 187-111 19 9 31 26 39 46" id="as"/><g id="o"><use transform="matrix(0.06172839506172839,0,0,0.06172839506172839,0,0)" xlink:href="#ag"/><use transform="matrix(0.06172839506172839,0,0,0.06172839506172839,15.987654320987653,0)" xlink:href="#as"/><use transform="matrix(0.06172839506172839,0,0,0.06172839506172839,31.975308641975307,0)" xlink:href="#ad"/><use transform="matrix(0.06172839506172839,0,0,0.06172839506172839,44.32098765432099,0)" xlink:href="#ai"/></g><path fill="#333" d="M233-177c-1 41-23 64-60 70L243 0h-38l-65-103H63V0H30v-248c88 3 205-21 203 71zM63-129c60-2 137 13 137-47 0-61-80-42-137-45v92" id="at"/><g id="p"><use transform="matrix(0.06172839506172839,0,0,0.06172839506172839,0,0)" xlink:href="#at"/><use transform="matrix(0.06172839506172839,0,0,0.06172839506172839,15.987654320987653,0)" xlink:href="#S"/><use transform="matrix(0.06172839506172839,0,0,0.06172839506172839,28.333333333333332,0)" xlink:href="#am"/><use transform="matrix(0.06172839506172839,0,0,0.06172839506172839,40.67901234567901,0)" xlink:href="#al"/><use transform="matrix(0.06172839506172839,0,0,0.06172839506172839,45.55555555555556,0)" xlink:href="#X"/></g><g id="q"><use transform="matrix(0.06172839506172839,0,0,0.06172839506172839,0,0)" xlink:href="#U"/><use transform="matrix(0.06172839506172839,0,0,0.06172839506172839,14.814814814814813,0)" xlink:href="#ac"/></g><g id="r"><use transform="matrix(0.06172839506172839,0,0,0.06172839506172839,0,0)" xlink:href="#as"/><use transform="matrix(0.06172839506172839,0,0,0.06172839506172839,15.987654320987653,0)" xlink:href="#S"/><use transform="matrix(0.06172839506172839,0,0,0.06172839506172839,28.333333333333332,0)" xlink:href="#Y"/><use transform="matrix(0.06172839506172839,0,0,0.06172839506172839,35.67901234567901,0)" xlink:href="#am"/></g><g id="s"><use transform="matrix(0.16666666666666646,0,0,0.16666666666666646,0,0)" xlink:href="#as"/><use transform="matrix(0.16666666666666646,0,0,0.16666666666666646,43.166666666666615,0)" xlink:href="#S"/><use transform="matrix(0.16666666666666646,0,0,0.16666666666666646,76.49999999999991,0)" xlink:href="#W"/><use transform="matrix(0.16666666666666646,0,0,0.16666666666666646,109.8333333333332,0)" xlink:href="#T"/><use transform="matrix(0.16666666666666646,0,0,0.16666666666666646,139.83333333333317,0)" xlink:href="#S"/><use transform="matrix(0.16666666666666646,0,0,0.16666666666666646,173.16666666666646,0)" xlink:href="#an"/></g><g id="t"><use transform="matrix(0.0864197530864197,0,0,0.0864197530864197,0,0)" xlink:href="#at"/><use transform="matrix(0.0864197530864197,0,0,0.0864197530864197,22.382716049382704,0)" xlink:href="#S"/><use transform="matrix(0.0864197530864197,0,0,0.0864197530864197,39.66666666666664,0)" xlink:href="#am"/><use transform="matrix(0.0864197530864197,0,0,0.0864197530864197,56.950617283950585,0)" xlink:href="#al"/><use transform="matrix(0.0864197530864197,0,0,0.0864197530864197,63.77777777777774,0)" xlink:href="#X"/></g><path fill="#333" d="M143 0L79-87 56-68V0H24v-261h32v163l83-92h37l-77 82L181 0h-38" id="au"/><g id="u"><use transform="matrix(0.0864197530864197,0,0,0.0864197530864197,0,0)" xlink:href="#aa"/><use transform="matrix(0.0864197530864197,0,0,0.0864197530864197,17.283950617283942,0)" xlink:href="#al"/><use transform="matrix(0.0864197530864197,0,0,0.0864197530864197,24.111111111111097,0)" xlink:href="#W"/><use transform="matrix(0.0864197530864197,0,0,0.0864197530864197,41.39506172839504,0)" xlink:href="#au"/></g><g id="v"><use transform="matrix(0.16666666666666646,0,0,0.16666666666666646,0,0)" xlink:href="#L"/><use transform="matrix(0.16666666666666646,0,0,0.16666666666666646,39.99999999999995,0)" xlink:href="#S"/><use transform="matrix(0.16666666666666646,0,0,0.16666666666666646,73.33333333333324,0)" xlink:href="#T"/><use transform="matrix(0.16666666666666646,0,0,0.16666666666666646,103.3333333333332,0)" xlink:href="#V"/></g><g id="w"><use transform="matrix(0.16666666666666646,0,0,0.16666666666666646,0,0)" xlink:href="#U"/><use transform="matrix(0.16666666666666646,0,0,0.16666666666666646,39.99999999999995,0)" xlink:href="#an"/><use transform="matrix(0.16666666666666646,0,0,0.16666666666666646,56.6666666666666,0)" xlink:href="#S"/><use transform="matrix(0.16666666666666646,0,0,0.16666666666666646,89.99999999999989,0)" xlink:href="#an"/><use transform="matrix(0.16666666666666646,0,0,0.16666666666666646,106.66666666666654,0)" xlink:href="#al"/><use transform="matrix(0.16666666666666646,0,0,0.16666666666666646,119.83333333333317,0)" xlink:href="#X"/><use transform="matrix(0.16666666666666646,0,0,0.16666666666666646,153.16666666666646,0)" xlink:href="#W"/></g><path fill="#333" d="M96-169c-40 0-48 33-48 73s9 75 48 75c24 0 41-14 43-38l32 2c-6 37-31 61-74 61-59 0-76-41-82-99-10-93 101-131 147-64 4 7 5 14 7 22l-32 3c-4-21-16-35-41-35" id="av"/><g id="x"><use transform="matrix(0.06172839506172839,0,0,0.06172839506172839,0,0)" xlink:href="#ac"/><use transform="matrix(0.06172839506172839,0,0,0.06172839506172839,15.987654320987653,0)" xlink:href="#V"/><use transform="matrix(0.06172839506172839,0,0,0.06172839506172839,28.333333333333332,0)" xlink:href="#av"/><use transform="matrix(0.06172839506172839,0,0,0.06172839506172839,39.44444444444444,0)" xlink:href="#X"/><use transform="matrix(0.06172839506172839,0,0,0.06172839506172839,51.79012345679012,0)" xlink:href="#am"/><use transform="matrix(0.06172839506172839,0,0,0.06172839506172839,64.1358024691358,0)" xlink:href="#V"/><use transform="matrix(0.06172839506172839,0,0,0.06172839506172839,76.48148148148148,0)" xlink:href="#Y"/></g><path fill="#333" d="M266 0h-40l-56-210L115 0H75L2-248h35L96-30l15-64 43-154h32l59 218 59-218h35" id="aw"/><path fill="#333" d="M115-194c53 0 69 39 70 98 0 66-23 100-70 100C84 3 66-7 56-30L54 0H23l1-261h32v101c10-23 28-34 59-34zm-8 174c40 0 45-34 45-75 0-40-5-75-45-74-42 0-51 32-51 76 0 43 10 73 51 73" id="ax"/><g id="y"><use transform="matrix(0.06172839506172839,0,0,0.06172839506172839,0,0)" xlink:href="#aw"/><use transform="matrix(0.06172839506172839,0,0,0.06172839506172839,20.493827160493826,0)" xlink:href="#V"/><use transform="matrix(0.06172839506172839,0,0,0.06172839506172839,32.839506172839506,0)" xlink:href="#ax"/></g><path fill="#333" d="M108 0H70L1-190h34L89-25l56-165h34" id="ay"/><g id="z"><use transform="matrix(0.06172839506172839,0,0,0.06172839506172839,0,0)" xlink:href="#U"/><use transform="matrix(0.06172839506172839,0,0,0.06172839506172839,14.814814814814813,0)" xlink:href="#V"/><use transform="matrix(0.06172839506172839,0,0,0.06172839506172839,27.160493827160494,0)" xlink:href="#Y"/><use transform="matrix(0.06172839506172839,0,0,0.06172839506172839,34.50617283950617,0)" xlink:href="#ay"/><use transform="matrix(0.06172839506172839,0,0,0.06172839506172839,45.61728395061728,0)" xlink:href="#V"/><use transform="matrix(0.06172839506172839,0,0,0.06172839506172839,57.962962962962955,0)" xlink:href="#Y"/></g><path fill="#333" d="M140-251c81 0 123 46 123 126C263-53 228-8 163 1c7 30 30 48 69 40v23c-55 16-95-15-103-61C56-3 17-48 17-125c0-80 42-126 123-126zm0 227c63 0 89-41 89-101s-29-99-89-99c-61 0-89 39-89 99S79-25 140-24" id="az"/><g id="A"><use transform="matrix(0.06172839506172839,0,0,0.06172839506172839,0,0)" xlink:href="#U"/><use transform="matrix(0.06172839506172839,0,0,0.06172839506172839,14.814814814814813,0)" xlink:href="#az"/><use transform="matrix(0.06172839506172839,0,0,0.06172839506172839,32.09876543209876,0)" xlink:href="#aa"/></g><g id="B"><use transform="matrix(0.06172839506172839,0,0,0.06172839506172839,0,0)" xlink:href="#ac"/><use transform="matrix(0.06172839506172839,0,0,0.06172839506172839,15.987654320987653,0)" xlink:href="#S"/><use transform="matrix(0.06172839506172839,0,0,0.06172839506172839,28.333333333333332,0)" xlink:href="#an"/><use transform="matrix(0.06172839506172839,0,0,0.06172839506172839,34.50617283950617,0)" xlink:href="#S"/><use transform="matrix(0.06172839506172839,0,0,0.06172839506172839,46.85185185185185,0)" xlink:href="#ax"/><use transform="matrix(0.06172839506172839,0,0,0.06172839506172839,59.197530864197525,0)" xlink:href="#S"/><use transform="matrix(0.06172839506172839,0,0,0.06172839506172839,71.5432098765432,0)" xlink:href="#T"/><use transform="matrix(0.06172839506172839,0,0,0.06172839506172839,82.65432098765432,0)" xlink:href="#V"/></g><path fill="#333" d="M115-194c55 1 70 41 70 98S169 2 115 4C84 4 66-9 55-30l1 105H24l-1-265h31l2 30c10-21 28-34 59-34zm-8 174c40 0 45-34 45-75s-6-73-45-74c-42 0-51 32-51 76 0 43 10 73 51 73" id="aA"/><g id="C"><use transform="matrix(0.12962962962962937,0,0,0.12962962962962937,0,0)" xlink:href="#at"/><use transform="matrix(0.12962962962962937,0,0,0.12962962962962937,33.574074074074005,0)" xlink:href="#S"/><use transform="matrix(0.12962962962962937,0,0,0.12962962962962937,59.49999999999988,0)" xlink:href="#T"/><use transform="matrix(0.12962962962962937,0,0,0.12962962962962937,82.83333333333317,0)" xlink:href="#aA"/><use transform="matrix(0.12962962962962937,0,0,0.12962962962962937,108.75925925925904,0)" xlink:href="#ax"/><use transform="matrix(0.12962962962962937,0,0,0.12962962962962937,134.6851851851849,0)" xlink:href="#V"/><use transform="matrix(0.12962962962962937,0,0,0.12962962962962937,160.61111111111077,0)" xlink:href="#Y"/><use transform="matrix(0.12962962962962937,0,0,0.12962962962962937,176.03703703703667,0)" xlink:href="#Y"/><use transform="matrix(0.12962962962962937,0,0,0.12962962962962937,191.46296296296256,0)" xlink:href="#ao"/></g><g id="D"><use transform="matrix(0.12962962962962937,0,0,0.12962962962962937,0,0)" xlink:href="#Z"/><use transform="matrix(0.12962962962962937,0,0,0.12962962962962937,31.11111111111105,0)" xlink:href="#al"/></g><path fill="#333" d="M155-56V0h-30v-56H8v-25l114-167h33v167h35v25h-35zm-30-156c-27 46-58 90-88 131h88v-131" id="aB"/><use transform="matrix(0.12962962962962937,0,0,0.12962962962962937,0,0)" xlink:href="#aB" id="E"/><g id="F"><use transform="matrix(0.19135802469135774,0,0,0.19135802469135774,0,0)" xlink:href="#aa"/><use transform="matrix(0.19135802469135774,0,0,0.19135802469135774,38.271604938271544,0)" xlink:href="#S"/><use transform="matrix(0.19135802469135774,0,0,0.19135802469135774,76.54320987654309,0)" xlink:href="#aA"/><use transform="matrix(0.19135802469135774,0,0,0.19135802469135774,114.81481481481464,0)" xlink:href="#an"/><use transform="matrix(0.19135802469135774,0,0,0.19135802469135774,133.9506172839504,0)" xlink:href="#X"/><use transform="matrix(0.19135802469135774,0,0,0.19135802469135774,172.22222222222194,0)" xlink:href="#aA"/></g><path fill="#333" d="M24 0v-261h32V0H24" id="aC"/><g id="G"><use transform="matrix(0.1358024691358021,0,0,0.1358024691358021,0,0)" xlink:href="#ac"/><use transform="matrix(0.1358024691358021,0,0,0.1358024691358021,35.17283950617274,0)" xlink:href="#al"/><use transform="matrix(0.1358024691358021,0,0,0.1358024691358021,45.90123456790111,0)" xlink:href="#T"/><use transform="matrix(0.1358024691358021,0,0,0.1358024691358021,70.34567901234549,0)" xlink:href="#aA"/><use transform="matrix(0.1358024691358021,0,0,0.1358024691358021,97.50617283950591,0)" xlink:href="#aC"/><use transform="matrix(0.1358024691358021,0,0,0.1358024691358021,108.23456790123427,0)" xlink:href="#S"/><use transform="matrix(0.1358024691358021,0,0,0.1358024691358021,135.3950617283947,0)" xlink:href="#ao"/><use transform="matrix(0.1358024691358021,0,0,0.1358024691358021,159.83950617283907,0)" xlink:href="#T"/></g><g id="H"><use transform="matrix(0.1358024691358021,0,0,0.1358024691358021,0,0)" xlink:href="#am"/><use transform="matrix(0.1358024691358021,0,0,0.1358024691358021,27.16049382716042,0)" xlink:href="#S"/><use transform="matrix(0.1358024691358021,0,0,0.1358024691358021,54.32098765432084,0)" xlink:href="#an"/><use transform="matrix(0.1358024691358021,0,0,0.1358024691358021,67.90123456790104,0)" xlink:href="#S"/></g><g id="I"><use transform="matrix(0.1358024691358021,0,0,0.1358024691358021,0,0)" xlink:href="#ay"/><use transform="matrix(0.1358024691358021,0,0,0.1358024691358021,24.44444444444438,0)" xlink:href="#al"/><use transform="matrix(0.1358024691358021,0,0,0.1358024691358021,35.17283950617274,0)" xlink:href="#S"/></g><path fill="#333" d="M206 0h-36l-40-164L89 0H53L-1-190h32L70-26l43-164h34l41 164 42-164h31" id="aD"/><g id="J"><use transform="matrix(0.1358024691358021,0,0,0.1358024691358021,0,0)" xlink:href="#aD"/><use transform="matrix(0.1358024691358021,0,0,0.1358024691358021,35.17283950617274,0)" xlink:href="#V"/><use transform="matrix(0.1358024691358021,0,0,0.1358024691358021,62.33333333333316,0)" xlink:href="#ax"/></g><g id="K"><use transform="matrix(0.1358024691358021,0,0,0.1358024691358021,0,0)" xlink:href="#ax"/><use transform="matrix(0.1358024691358021,0,0,0.1358024691358021,27.16049382716042,0)" xlink:href="#Y"/><use transform="matrix(0.1358024691358021,0,0,0.1358024691358021,43.320987654320874,0)" xlink:href="#X"/><use transform="matrix(0.1358024691358021,0,0,0.1358024691358021,70.4814814814813,0)" xlink:href="#aD"/><use transform="matrix(0.1358024691358021,0,0,0.1358024691358021,105.65432098765405,0)" xlink:href="#T"/><use transform="matrix(0.1358024691358021,0,0,0.1358024691358021,130.09876543209842,0)" xlink:href="#V"/><use transform="matrix(0.1358024691358021,0,0,0.1358024691358021,157.25925925925884,0)" xlink:href="#Y"/></g></defs></g></svg>